<svg xmlns="http://www.w3.org/2000/svg" viewBox="0 0 64 64" role="img" aria-label="NR Backoffice">
  <defs>
    <linearGradient id="brand-red" x1="10" y1="8" x2="54" y2="58" gradientUnits="userSpaceOnUse">
      <stop stop-color="#dc2626"/>
      <stop offset="1" stop-color="#8f1414"/>
    </linearGradient>
    <linearGradient id="panel" x1="18" y1="17" x2="47" y2="49" gradientUnits="userSpaceOnUse">
      <stop stop-color="#ffffff"/>
      <stop offset="1" stop-color="#fff1f2"/>
    </linearGradient>
  </defs>
  <rect width="64" height="64" rx="14" fill="url(#brand-red)"/>
  <path d="M17 18.5c0-3 2.4-5.5 5.5-5.5h19L52 23.5v22c0 3-2.4 5.5-5.5 5.5h-24c-3.1 0-5.5-2.5-5.5-5.5v-27z" fill="url(#panel)"/>
  <path d="M41.5 13v8.1c0 1.3 1.1 2.4 2.4 2.4H52" fill="#fecaca"/>
  <path d="M23 30.5h18M23 37h18M23 43.5h12" stroke="#b91c1c" stroke-width="3" stroke-linecap="round"/>
  <rect x="12" y="11" width="40" height="42" rx="8" fill="none" stroke="rgba(255,255,255,.28)" stroke-width="2"/>
  <text x="32" y="28" text-anchor="middle" fill="#991b1b" font-family="Arial, Helvetica, sans-serif" font-size="14" font-weight="700" letter-spacing="0">NR</text>
</svg>
